<svg width="37" height="37" viewBox="0 0 37 37" fill="none" xmlns="http://www.w3.org/2000/svg">
<path d="M36.2096 18.3743C36.2096 8.26043 28.3035 0.0615281 18.5509 0.0615281C8.79823 0.0615281 0.892151 8.26043 0.892151 18.3743C0.892151 27.5147 7.34969 35.0908 15.7917 36.4646V23.6678H11.308V18.3743H15.7917V14.3398C15.7917 9.75013 18.428 7.21495 22.4617 7.21495C24.3937 7.21495 26.4145 7.57263 26.4145 7.57263V12.0793H24.1878C21.9942 12.0793 21.3101 13.4909 21.3101 14.9391V18.3743H26.2076L25.4247 23.6678H21.3101V36.4646C29.7521 35.0908 36.2096 27.5147 36.2096 18.3743Z" fill="#1877F2"/>
<path d="M25.4247 23.6686L26.2077 18.3751H21.3101V14.9399C21.3101 13.4917 21.9942 12.0801 24.1879 12.0801H26.4146V7.57343C26.4146 7.57343 24.3937 7.21576 22.4617 7.21576C18.4281 7.21576 15.7918 9.75093 15.7918 14.3406V18.3751H11.3081V23.6686H15.7918V36.4654C16.6908 36.6117 17.6123 36.6879 18.5509 36.6879C19.4896 36.6879 20.4111 36.6117 21.3101 36.4654V23.6686H25.4247Z" fill="white"/>
</svg>
