<?xml version="1.0" encoding="utf-8"?>
<!-- Generator: Adobe Illustrator 25.2.0, SVG Export Plug-In . SVG Version: 6.00 Build 0)  -->
<svg version="1.1" id="Layer_1" xmlns="http://www.w3.org/2000/svg" xmlns:xlink="http://www.w3.org/1999/xlink" x="0px" y="0px"
	 viewBox="0 0 984 768.9" style="enable-background:new 0 0 984 768.9;" xml:space="preserve">
<style type="text/css">
	.st0{fill:#F9F1EB;}
	.st1{fill:#F9E7DB;}
	.st2{fill:url(#SVGID_1_);}
	.st3{fill:#192534;}
	.st4{fill:#FFC1C7;}
	.st5{opacity:0.1;enable-background:new    ;}
	.st6{fill:#F2F2F2;}
	.st7{fill:#FF6584;}
	.st8{fill:#3F3D56;}
	.st9{fill:#3C354C;stroke:#3C354C;stroke-width:3;stroke-miterlimit:10;}
	.st10{fill:#A0616A;}
	.st11{opacity:5.000000e-02;enable-background:new    ;}
	.st12{opacity:0.1;}
	.st13{fill:none;stroke:#3C354C;stroke-width:3;stroke-miterlimit:10;}
	.st14{fill:#3C354C;}
</style>
<path class="st0" d="M46.1,27.6h268.7c11.7,0,21.2,9.5,21.2,21.2v339.9c0,11.7-9.5,21.2-21.2,21.2H46.1c-11.7,0-21.2-9.5-21.2-21.2
	V48.8C25,37.1,34.4,27.6,46.1,27.6z"/>
<path class="st1" d="M395,154.7h273.3c10.4,0,18.9,8.5,18.9,18.9V518c0,10.4-8.5,18.9-18.9,18.9H395c-10.4,0-18.9-8.5-18.9-18.9
	V173.5C376.2,163.1,384.6,154.7,395,154.7z"/>
<linearGradient id="SVGID_1_" gradientUnits="userSpaceOnUse" x1="-648.3214" y1="167.6472" x2="-648.3214" y2="497.0652" gradientTransform="matrix(1 0 0 -1 1187 704.46)">
	<stop  offset="0" style="stop-color:#808080;stop-opacity:0.25"/>
	<stop  offset="0.54" style="stop-color:#808080;stop-opacity:0.12"/>
	<stop  offset="1" style="stop-color:#808080;stop-opacity:0.1"/>
</linearGradient>
<path class="st2" d="M597.2,273.1c1-2.9,2.6-5.5,3.4-8.4c1.1-3.9,0.7-8,0.2-12.1c-0.1-1.8-0.6-3.5-1.5-5c-1.4-1.9-3.7-2.6-5.6-4
	c-4.5-3.4-5.1-9.5-6.6-14.9c-2-6.9-6.1-13-11.7-17.5c-3.5-2.9-8.5-5.1-12.4-2.9c-1.7,0.9-2.9,2.5-4.6,3.4c-2.2,1.1-4.8,0.8-7.3,0.6
	c-0.3-0.4-0.7-0.7-1.2-0.9c-2.4-1.1-6.8,0.2-9.1,1.1c-1.9,0.7-3.5,2-4.5,3.8c-0.2,0.4-0.4,0.9-0.5,1.4c-0.3,1.2-0.4,2.5-0.8,3.7
	c-0.3,0.9-0.7,1.8-1.3,2.5c-1.5,2.2-3.7,4.1-5.2,6.3c-0.7,1.1-1.3,2.2-1.7,3.4l0,0c-1.1,3.5-1.5,7.2-1.2,10.9c0.2,5,0.8,10-0.4,14.9
	c-0.4,1.5-0.9,3-1.4,4.4c-0.1,0.2-0.2,0.5-0.2,0.7l-0.2,0.7c-0.1,0.4-0.2,0.7-0.2,1l0,0c-0.1,0.7-0.2,1.5-0.2,2.2c0,0.4,0,0.7,0,1.1
	c0,0.7,0,1.5-0.1,2.2c0,1.1-0.2,2.2-0.4,3.3c-0.3,1.2-0.8,2.4-1.4,3.5l0,0c-0.7,1.2-1.5,2.4-2.3,3.6l-2.7,3.9
	c-3.2-0.3-6.4-0.2-9.1,1.3c-2.5,1.5-4.4,4-5.2,6.8c-0.2,0.1-0.4,0.2-0.6,0.4c-0.5,0.5-1.2,2.1-1.7,4.2c0,0,0,0,0,0
	c-1.2,4.3-2.3,10.4-2.6,11.8c-0.8,3-1.4,6.1-2,9.2c-1.1,6.4-1.9,12.8-3,19.1c-0.2,1.3-1.7,9.9-3.1,14.9c0,0.1-0.1,0.3-0.1,0.4
	c-0.5,1.8-1.1,3.1-1.5,3.1h0.7h0.8c-0.3,0.6-0.5,1.2-0.7,1.8c-0.4,1.3-0.8,2.5-1.1,3.8c0,0,0,0.1,0,0.1c-0.9,4-1.4,8.1-1.7,12.2
	c-1.8,23.9-1.9,47.8-0.2,71.7c0.1,3.5,0.7,7,1.8,10.4c0.6,1.7,1.6,3.3,2.8,4.7l0.2,0.2c-0.1,0.5-0.2,0.9-0.3,1.4
	c-3.3,14.7-7.2,29.3-11.7,43.8c-0.1,0.3-0.2,0.6-0.3,0.9c-0.3,0.9-0.5,1.8-0.8,2.7c-0.2,0.6-0.3,1.2-0.5,1.8
	c-0.1,0.4-0.2,0.8-0.3,1.1c-0.7,2.6-1.3,5.3-1.6,8c-0.4,5-0.2,10.1,0.8,15h31.9c0-0.2-0.1-0.4-0.1-0.7c-0.6-4.5-1.4-9.1,0-13.4
	c0.9-2.8,2.7-5.1,4.1-7.6c3-5.2,4.7-11,7.4-16.3c4-7.7,10.1-14.4,12.9-22.5c0.3-0.9,0.6-1.7,0.8-2.6c1.9,5.8,1.9,11.6,2.3,17.7
	c0.9,15.3,3.4,30.5,7.5,45.4h32.2c-0.5-8.4-1.3-16.8-1.8-25.2c-0.4-4.6-0.3-9.2,0.3-13.8c0.6-3.3,1.4-6.6,2.5-9.8
	c3.6-11.6,7.5-23.3,8.7-35.5s2.1-29.2-4.6-39.5c-0.1-0.2-0.3-0.4-0.4-0.5c0.1-0.9,0.1-1.9,0-2.8c-1.8-16.7-11.3-32.7-8.6-49.2
	c0.9-4.3,2.2-8.6,3.9-12.6c4.1-10.3,8.6-20.8,11.1-31.4c1.1-3,1.9-6.1,2.3-9.2c0.5-2.8,0.7-5.6,0.8-8.4c0-1.1-0.1-2.1-0.3-3.2
	c3.3,1.2,6.6,3.4,10.1,3.9c0.3,0,0.6,0.1,0.9,0.1c0-0.1-0.1-0.1-0.1-0.2c-0.4-0.7-0.6-1.4-0.7-2.2c0.6,0.1,1.3,0.2,1.9,0.1l0,0
	c1.3-0.1,2.5-0.4,3.5-1.1C597,290.4,594.6,281.4,597.2,273.1z M500.2,422.6c-0.5,1.1-1,2.3-1.5,3.5V426c-1.6-4.7-1.9-9.7-0.9-14.5
	c0.1-0.3,0.2-0.6,0.2-0.9s0.2-0.8,0.3-1.2c0.7,3,2.6,5.5,5.3,7c-0.3,0.5-0.6,0.9-0.9,1.4C501.8,419.4,500.9,421,500.2,422.6
	L500.2,422.6z M504.7,389.6L504.7,389.6c-0.9,1.8-2,3.5-3.1,5.2c1.7-8.8,2.8-17.7,3.3-26.7l0,0c0.1-1.5,0.2-2.9,0.2-4.4
	c0.8,3.3,1.2,6.8,1.4,10.2c0.4,4.5,0.7,9.1-0.8,13.4C505.4,388,505,388.8,504.7,389.6L504.7,389.6z"/>
<path class="st3" d="M539.5,215.2c-1.9,0.7-3.4,2-4.4,3.7c-0.8,1.6-0.7,3.4-1.2,5c-1.1,3.5-4.3,5.8-6.3,8.8c-2.7,4.1-3,9.4-2.9,14.3
	s0.8,10-0.4,14.8c-0.6,2.3-1.6,4.6-2,6.9c-0.5,2.9-0.1,5.9-0.8,8.7c-0.8,2.5-2,4.9-3.7,7l-6.4,9.4c2.9-0.7,5.7-1.5,8.4-2.5
	c-0.8,2.7-2.4,5.1-4.6,6.9l4.6-5.6c0.9-1.3,2.1-2.4,3.4-3.3c1.7-1,3.7-1.1,5.6-1.5c3.7-0.8,7.3-2.6,9.1-5.9
	c2.4-4.4,0.9-9.9,2.2-14.7c1-3.5,3.4-6.4,5-9.7c3.8-7.3,3.5-16,4.7-24.2c0.7-3.4,1.1-6.9,1.3-10.4c0-2.6-0.3-7.5-3-8.8
	C546.1,212.9,541.7,214.3,539.5,215.2z"/>
<path class="st3" d="M581.4,453.9c-1.2,12-5,23.7-8.5,35.2c-1.1,3.2-1.9,6.5-2.5,9.8c-0.6,4.5-0.7,9.1-0.3,13.7
	c0.5,8.1,1.2,16.2,1.7,24.3H540c-3.9-14.5-6.2-29.3-7.1-44.3c-0.3-5.5-0.3-10.8-1.8-16.1c-0.1-0.5-0.3-1-0.4-1.5
	c-2.2,9.2-9.2,16.5-13.5,25c-2.7,5.3-4.4,11-7.3,16.2c-1.4,2.5-3.1,4.9-4,7.6c-1.4,4.2-0.7,8.8-0.1,13.2h-31.4
	c-0.9-4.7-1.1-9.4-0.7-14.1c0.4-3.4,1.1-6.7,2.2-10c0.2-0.6,0.3-1.2,0.5-1.8c0.3-0.9,0.6-1.8,0.8-2.7c4.5-14.8,8.5-29.8,11.8-45
	c0.1-0.5,0.2-1,0.3-1.4c0.6-2.6,1.1-5.2,1.7-7.8c1.8-9,3.6-18.2,6.9-26.6c0.2-0.5,0.4-1,0.6-1.5c0.5-1.1,1-2.3,1.5-3.3
	c0.8-1.6,1.7-3.2,2.6-4.7c0.9-1.4,1.9-2.8,3-4.2c17.6-1.5,35.8-10.3,53-6.2c2.9,0.6,5.6,1.7,8.1,3.3c2.9,1.9,7.5,0.8,9.7,3.2
	c0.2,0.2,0.3,0.4,0.4,0.5C583.4,424.8,582.6,441.9,581.4,453.9z"/>
<path class="st4" d="M536.7,274c-0.4,4.3-1.3,9.4-5.2,11.2c-2.2,1-4.8,0.6-7.2,1c-4.5,0.7-8.3,4.2-10.4,8.3
	c-2.1,4.1-2.8,8.7-3.3,13.3c-0.6,5.7-0.8,11.9,2.3,16.8c2.5,3.9,6.9,6.3,11.4,7.5c9.2,2.4,18.9,0.6,26.6-4.9
	c3.6-2.8,6.9-6.1,9.8-9.7c6.5-7.6,13.1-15.9,14.4-25.8c0.2-1.1,0.2-2.5-0.8-3.2c-0.6-0.4-1.4-0.5-2.1-0.4l-6.3,0.1
	c-1.6,0-3.4,0-4.5-1.2s-1-2.7-1-4.2l0.5-18.1c0.1-0.6,0-1.3-0.4-1.8c-0.4-0.4-0.9-0.6-1.4-0.6c-3.4-0.6-7,0-10.4-0.9
	c-3.2-0.9-8.2-4.6-10.6-0.8C536.3,263.7,537,270.4,536.7,274z"/>
<path class="st5" d="M536.7,274c-0.4,4.3-1.3,9.4-5.2,11.2c-2.2,1-4.8,0.6-7.2,1c-4.5,0.7-8.3,4.2-10.4,8.3
	c-2.1,4.1-2.8,8.7-3.3,13.3c-0.6,5.7-0.8,11.9,2.3,16.8c2.5,3.9,6.9,6.3,11.4,7.5c9.2,2.4,18.9,0.6,26.6-4.9
	c3.6-2.8,6.9-6.1,9.8-9.7c6.5-7.6,13.1-15.9,14.4-25.8c0.2-1.1,0.2-2.5-0.8-3.2c-0.6-0.4-1.4-0.5-2.1-0.4l-6.3,0.1
	c-1.6,0-3.4,0-4.5-1.2s-1-2.7-1-4.2l0.5-18.1c0.1-0.6,0-1.3-0.4-1.8c-0.4-0.4-0.9-0.6-1.4-0.6c-3.4-0.6-7,0-10.4-0.9
	c-3.2-0.9-8.2-4.6-10.6-0.8C536.3,263.7,537,270.4,536.7,274z"/>
<circle class="st4" cx="552.5" cy="248.9" r="23.9"/>
<path class="st6" d="M526.8,315.4c-3.9,0.1-8.2-1-10.1-4.4c-1.3-2.3-1.1-5.1-0.8-7.8l1.4-14.7c-3.8-0.4-7.8-0.7-11.1,1.1
	c-4.3,2.5-5.9,7.9-6.4,12.9c-0.9,9.3,0.6,18.8,0.1,28.1c-0.4,7.9-2.2,16,0.1,23.5c1,3.1,2.6,6,3.7,9.1c1.2,4,1.8,8.1,2,12.3
	c0.4,4.5,0.7,9.1-0.8,13.3c-1.3,3.5-3.7,6.5-5.4,9.8c-2.8,5.5-3.5,12.9,0.8,17.3c3.9,4.1,10.4,4.2,15.9,3c5.5-1.2,10.8-3.7,16.4-4
	c9.9-0.4,18.8,6,28.5,8.1c1.3,0.4,2.7,0.4,4,0.1c1.2-0.4,2.3-1,3.2-1.8l5.3-3.8c1.1-0.6,1.9-1.5,2.6-2.6c0.5-1.2,0.6-2.5,0.3-3.7
	c-1.8-16.6-11.2-32.5-8.5-48.9c0.8-4.3,2.1-8.5,3.8-12.6c6.8-17.3,14.8-35.2,12.2-53.5c-0.6-4.1-1.8-8.2-4.6-11.2s-7.5-4.5-11.2-2.6
	s-4.9,6.2-6.5,9.9c-3.1,7.2-8,13.5-14.2,18.3c-2.6,2-5.8,4.6-9.3,4.7C534.6,315.6,530.7,315.3,526.8,315.4z"/>
<path class="st4" d="M492.2,352.5c-5.8,6.4-6.9,15.7-7.6,24.3c-1.7,23.7-1.8,47.5-0.2,71.3c0.1,3.5,0.7,7,1.8,10.3
	c1.2,3.3,3.5,6.3,6.8,7.7c2.1,0.8,5,0.6,6-1.4c0.9-1.9-0.4-4-1.4-5.8c-2.2-4.2-3-9-2.1-13.7c1.2,0.9,1.6,2.4,1.9,3.9l1.9,8
	c2.6-0.4,3.5-3.5,3.9-6.1c0.8-4.6,1.5-9.6-0.4-13.9c-1-2.3-2.7-4.3-3.6-6.5c-2.5-5.8-3.5-12.4-1.9-18.5c5.4-20.5,7.8-41.8,7-63
	C500.6,351.2,496.4,352.4,492.2,352.5z"/>
<path class="st6" d="M486.7,359c7.1,0.1,14.2,1,21.1,2.8c0.9-4.5,0.5-9.2,0-13.7l-3-31.4c-0.2-2.3,0.2-23.7-4.3-19.9
	c-1.7,1.4-3.8,13.9-4.3,15.9c-0.8,3-1.4,6.1-2,9.2c-1.1,6.3-1.9,12.7-3,19C491,342.6,488.3,359,486.7,359z"/>
<path class="st3" d="M543.4,218.6c0-0.7,0.1-1.5,0.5-2.1c0.6-0.8,1.6-1.3,2.6-1.4c3.5-0.5,7.2,0.9,10.3-0.7c1.7-0.9,2.9-2.5,4.5-3.4
	c3.9-2.2,8.8,0,12.2,2.9c5.5,4.5,9.5,10.6,11.5,17.5c1.5,5.3,2.1,11.5,6.5,14.8c1.8,1.4,4.2,2.1,5.5,4c0.9,1.5,1.4,3.2,1.5,5
	c0.5,4,0.8,8.1-0.2,12c-0.8,2.9-2.3,5.5-3.3,8.4c-2.7,8.2-0.3,17.3,6.1,23.2c-1.6,1-3.5,1.3-5.3,0.9c0,0.8,0.3,1.7,0.8,2.4
	c-5.6-0.2-10.5-5.6-15.9-4.4c-4.2,0.9-6.5,5.2-9.6,8.1c-4,3.8-10.3,5.4-15.3,3.1s-8.1-8.6-6-13.7c2.4-5.8,9.9-8.1,12.5-13.8
	c2-4.4,0.5-9.6,1-14.4c0.4-4.2,2.2-8,3.3-12.1s1.5-8.6-0.8-12.1c-2.4-3.7-7-5.2-11.3-6.5C544.8,233,543,228.2,543.4,218.6z"/>
<path class="st4" d="M549.2,304.5c-0.7-3.3-1.3-6.9-0.2-10.1c2.2-5.9,9.5-7.8,14.6-11.6c2.9-2.2,5.2-5.2,6.5-8.7
	c0.9-2.4,1-5.7-1.2-7c-0.9-0.4-1.9-0.6-2.8-0.5c-7.9,0.2-15.1,4.5-21.1,9.5c-3.5,3-6.9,6.3-8.6,10.6c-1.1,3.1-1.8,6.3-2,9.5
	l-1.2,10.7c-0.8,6.1-1.3,12.3-1.4,18.5c0,3.5,0.2,7.1,0.7,10.6c0.3,2.5,0.8,5.1,2.3,7.1c2.7,3.8,8,4.7,12.7,4.8
	c1.8,0.1,3.6,0,5.3-0.3c7.8-1.7,13.7-12.6,7.8-19.3c-2.5-2.9-6.3-2.9-7.7-6.9C550.8,316.2,550.3,309.9,549.2,304.5z"/>
<path class="st6" d="M555.6,306.3l-6.2,10c-0.4,0.5-0.6,1.1-0.8,1.7c-0.2,1.3,0.8,2.5,1.6,3.5c5.3,7.2,4,17.2,2.4,26
	c17.3-5.5,29.9-20.3,32.5-38.2c0.8-5.3,2-13.9-2.6-17.3C571.2,283.9,560.8,297.7,555.6,306.3z"/>
<path class="st3" d="M524.3,286.2c2.4-0.4,5,0,7.2-1c3.9-1.8,4.8-6.9,5.2-11.2c0-0.4,0.1-0.8,0.1-1.3c-1.4-1.5-2.9-2.8-4.5-4
	c-1.5-0.8-3-1.5-4.7-2l-4.3-1.6c-0.4,1.2-0.8,2.3-1,3.5c-0.5,2.9-0.1,5.9-0.8,8.7c-0.8,2.5-2,4.9-3.7,7l-6.4,9.4
	c1.2-0.3,2.3-0.6,3.4-0.9C517,289.5,520.4,287,524.3,286.2z"/>
<path class="st4" d="M690.4,462.7c0,0-41.6-20.4-33.6-4.9s33.6,17.3,33.6,17.3V462.7z"/>
<polygon class="st3" points="650.1,448.1 648.8,450.7 680.2,467.1 681.5,464.4 "/>
<path class="st1" d="M719.2,461.8c0,0-2.7,6.7-12.8,2.7c-5.8-2.4-11.9-3.6-18.2-3.5c0,0-6.6,13.3,0,18.2s34.5,13.3,35.4,8.4
	S719.2,461.8,719.2,461.8z"/>
<path class="st5" d="M719.2,461.8c0,0-2.7,6.7-12.8,2.7c-5.8-2.4-11.9-3.6-18.2-3.5c0,0-6.6,13.3,0,18.2s34.5,13.3,35.4,8.4
	S719.2,461.8,719.2,461.8z"/>
<circle class="st7" cx="739.8" cy="356.6" r="27.9"/>
<path class="st1" d="M719,408.9V404c0,0,6.6-8.4,14.2-2.6s-4,25.7-4,25.7l-8.4-4.9L719,408.9z"/>
<path class="st4" d="M743.5,737.4l-8.4,9.8c0,0,15.1,3.5,15.5,4s15.5-1.3,15.5-1.3l-1.4-15.5L743.5,737.4z"/>
<path class="st4" d="M775.4,728.4l4,16.8l17.3-4l8.9-13.7c0,0-6.2-4.4-8-8.9S775.4,728.4,775.4,728.4z"/>
<path class="st8" d="M777.6,597.4l-1.8,28.8c-2.2,4.7-2.7,10-1.3,15.1c2.2,8.4,1.3,43.8,1.3,43.8s-3.1,48.7-4,51.8s-4,4.4-1.8,7.1
	c0,0-29.7,6.6-29.2-4.4c0,0,4-7.5,4-14.6s1.3-46.1,1.3-46.1l10.6-99.6L777.6,597.4z"/>
<path class="st5" d="M777.6,597.4l-1.8,28.8c-2.2,4.7-2.7,10-1.3,15.1c2.2,8.4,1.3,43.8,1.3,43.8s-3.1,48.7-4,51.8s-4,4.4-1.8,7.1
	c0,0-29.7,6.6-29.2-4.4c0,0,4-7.5,4-14.6s1.3-46.1,1.3-46.1l10.6-99.6L777.6,597.4z"/>
<path class="st8" d="M731.1,524.2c0,0-12.4,73.5-12,97s6.6,36.8,6.6,36.8l33.2,45.2c-1,2.5-0.7,5.3,0.9,7.5c2.7,4,3.5,7.1,3.5,9.7
	s5.3,4.4,7.1,8s6.6,13.7,18.2,5.8s15.5-11.1,13.3-17.3s-7.1-10.2-7.5-13.3S784.3,693,783,684.1S759,638.9,759,638.9
	s22.6-45.2,23.5-53.6s3.5-12,3.5-12s13.7-26.1,6.2-38.1S731.1,524.2,731.1,524.2z"/>
<path class="st8" d="M750.6,748.9c0,0-12-1.8-12-8.4l-16.4,9.3c0,0-32.3,1.3-18.6,12.4s74-3.5,74-3.5s-4.4-14.6-8.9-15.9
	C768.8,742.7,760.8,749.3,750.6,748.9z"/>
<path class="st5" d="M750.6,748.9c0,0-12-1.8-12-8.4l-16.4,9.3c0,0-32.3,1.3-18.6,12.4s74-3.5,74-3.5s-4.4-14.6-8.9-15.9
	C768.8,742.7,760.8,749.3,750.6,748.9z"/>
<path class="st8" d="M804.7,725.3c0,0-12.9,18.2-24.4,13.3c0,0-6.7-6.8-9.1-3s-7.7,14.5-13.5,15.8s-26.1,8-6.2,13.3
	s57.6-12.4,61.1-19.5S804.7,725.3,804.7,725.3z"/>
<path class="st4" d="M722.8,393.3c1.5,2.1,2.7,4.4,3.7,6.8c1,2.4,1,5.1,0.2,7.6c-0.4,1.1-1.1,2.1-1.6,3.3c-1,2.6-0.9,5.5,0.2,8.1
	c1.1,2.5,2.8,4.8,4.8,6.7c0.6,0.7,1.4,1.1,2.2,1.3c1.2,0,2.4-0.6,3.1-1.7c2-2.5,2.4-5.9,3.1-9.1s1.8-6.5,4.6-8.2
	c1.5-0.8,3.2-1.2,4.9-1.3l6.3-0.8c1.2,0,2.3-0.4,3.2-1.1c1.3-1.2,4.5,2.7,3.5,1.3s-6.2-8.4-7.7-9.2c-1.6-0.7-3-1.8-4.1-3.3
	c-0.7-1.5-1.1-3.2-1-4.9c-0.1-3.2-0.4-6.5-2.1-9.2c-1.9-2.7-4.8-4.7-8-5.4c-3.2-0.7-6.5-1-9.8-0.9c-2.1-0.2-4.2,0.1-6.2,0.8
	c-1.3,0.5-2.3,1.3-3.1,2.4c-1.4,2-3,5.5-2,7.8C718.3,387.5,720.9,390.4,722.8,393.3z"/>
<circle class="st4" cx="732" cy="364.8" r="25.7"/>
<path class="st1" d="M765.7,410.4c-3.1-6.6-10.1-10.4-17.3-9.7c-7.3,0.8-15.4,2.8-16.4,7.5c-1.8,8.9-4.9,18.6-4.9,11.1
	s-0.2-12.9-0.2-12.9s-6.9-5.7-8.2-2.2s-2.7,17.3-2.2,27s0.9,39.8,0.9,39.8s0.9,30.1,3.5,38.1c1.6,5.3,2.1,10.9,1.3,16.4
	c0,0-3.5,3.5,4.9,4.9s12.8-6.2,26.6,3.1s43.8,14.2,45.2,8s-8.4-31.9-5.8-50.9S765.7,410.4,765.7,410.4L765.7,410.4z"/>
<path class="st4" d="M736.5,522.9c0,0-6.6,10.6-8.8,11.1s-3.1,4.9,2.2,2.7s3.5-2.2,3.5-2.2s-4.4,7.1,3.1,8.4s11.5,2.2,11.5-1.8
	s-0.9-14.6-0.9-14.6L736.5,522.9z"/>
<path class="st5" d="M738.7,408.2c-5.9,7.9-7.1,18.4-3.1,27.5c6.6,15.9,22.1,43.8,22.1,43.8s7.1,4,4,7.1s-3.5,2.2-5.8,4.9
	s-17.7,22.1-17.7,22.1s-8.8,5.3-6.2,11.5s13.3,8.9,13.3,8.9c1.2-3.3,4.5-5.3,8-4.9c6.2,0.4,17.3-8.9,17.3-8.9s17.3-29.7,19-32.8
	s4-4,0.9-12s-25.7-64.6-35.4-67.3S738.7,408.2,738.7,408.2z"/>
<path class="st1" d="M740.4,407.3c-5.9,7.9-7.1,18.4-3.1,27.5c6.6,15.9,22.1,43.8,22.1,43.8s7.1,4,4,7.1s-3.5,2.2-5.8,4.9
	S740,512.7,740,512.7s-8.9,5.3-6.2,11.5s13.3,8.8,13.3,8.8c1.2-3.3,4.5-5.3,8-4.9c6.2,0.4,17.3-8.9,17.3-8.9s17.3-29.7,19-32.8
	s4-4,0.9-12s-25.7-64.7-35.4-67.3S740.4,407.3,740.4,407.3z"/>
<circle class="st7" cx="746.6" cy="358.6" r="26.8"/>
<ellipse transform="matrix(0.738 -0.6748 0.6748 0.738 -25.9955 603.6414)" class="st7" cx="764.3" cy="335.3" rx="8.6" ry="13.7"/>
<ellipse class="st7" cx="722.1" cy="344.2" rx="19" ry="8.9"/>
<ellipse class="st4" cx="726.1" cy="370.6" rx="4" ry="6"/>
<rect x="516" y="765.5" class="st9" width="397.8" height="1"/>
<path class="st10" d="M271,272.3c-6.1,2.3-20.3,2.6-26.6,2.6c-1.9,0-3.1,0-3.1,0l-4-8.2l4-6.9c0,0,3.7-1,8.6-1.9
	c7.3-1.3,17.2-2.3,22,0.6C279.8,263.3,278.9,269.2,271,272.3z"/>
<path class="st5" d="M244.3,274.8c-1.9,0-3.1,0-3.1,0l-4-8.2l4-6.9c0,0,3.7-1,8.6-1.9C245.9,260.7,236.3,267.1,244.3,274.8z"/>
<path class="st3" d="M177.3,173.7l1.8-2c0,0,9.2,14.5,10.2,20s2.2,11.8,2.2,11.8s2.3,7.1,3.9,10.3s2.9,6.2,3,7.5s-0.5,4.4,2.3,6.3
	s3.6,7.1,3.6,7.1s10.4,10.2,15.9,10.4s21.3,3,20.7,5.8s6.6,4.4,9.5,5.1s-18.5,8.9-6,19.5c0,0-8,1.6-8.8,3.6s-9.2-1.1-9.2-1.1
	s-1.8-4.3-8-4.5s-9.3-3-9.3-3.4s-6.2-3.9-9.6-4.8s-8-1.4-8.1-2.3s-20.6-89.3-20.6-89.3L177.3,173.7z"/>
<path class="st11" d="M177.3,173.7l1.8-2c0,0,9.2,14.5,10.2,20s2.2,11.8,2.2,11.8s2.3,7.1,3.9,10.3s2.9,6.2,3,7.5s-0.5,4.4,2.3,6.3
	s3.6,7.1,3.6,7.1s10.4,10.2,15.9,10.4s21.3,3,20.7,5.8s6.6,4.4,9.5,5.1s-18.5,8.9-6,19.5c0,0-8,1.6-8.8,3.6s-9.2-1.1-9.2-1.1
	s-1.8-4.3-8-4.5s-9.3-3-9.3-3.4s-6.2-3.9-9.6-4.8s-8-1.4-8.1-2.3s-20.6-89.3-20.6-89.3L177.3,173.7z"/>
<path class="st3" d="M221.3,409.9h-42.4c-2.2-3.9-4-7.9-3.6-9.2c0.9-3-0.4-7.8-0.4-7.8s-1.3-2.3-2.9-5c-2-3.3-4.3-7.4-5.1-8.6
	c-1-1.6-3.4-8.4-4.8-12.2c-0.6-1.6-1-2.8-1-2.8s-1.6,30.3-3.1,33.4c-0.6,1.3-1.4,6.7-2,12.3h-33.3c-0.2-1-0.5-1.9-0.9-2.8
	c-1.5-3,1.5-13.3,1.5-13.3s-3-20-2.9-23.1s-2.6-12.3-2.6-12.3s-2.7-4.7-2.1-6.2s-2.1-5.1-1.3-6.8s-0.6-6.7-2-9.7
	c-0.7-1.5-1.5-5.8-2.2-9.5c-0.1-0.4-0.1-0.8-0.2-1.2c-0.5-3-0.9-5.5-0.9-5.5l5.4-4.4l0.2-0.2l11.3-9.1l15.5-4l0.9-0.3l26-6.8
	l11.1-3.6l3.1-1l1.8-0.6l15.5,24.5c0,0,1.3,2.1,2.6,4.7l0.4,0.8c1.2,2.5,2.3,5.4,2.1,7.1c-0.3,2.2,0.2,4.5,1.4,6.4
	c0,0,9.3,29.4,9.1,37.8s3.3,27,3.3,27S221.3,405.1,221.3,409.9z"/>
<path class="st10" d="M157.9,174.7c-0.7-0.3-45.5-18.8-39.3-22.4c3.7-2.2,8.2-11.4,11.3-18.7c2.2-5.1,3.6-9.1,3.6-9.1
	s36-6.4,23.1,15.7c-2,3.4-3.6,7-4.5,10.9C148.4,166,157.6,174.4,157.9,174.7z"/>
<path class="st5" d="M156.6,140.1c-2,3.4-3.6,7-4.5,10.9c-9.3-0.7-17.5-6.4-21.2-14.9c-0.4-0.8-0.7-1.6-0.9-2.5
	c2.2-5.1,3.6-9.1,3.6-9.1S169.4,118.1,156.6,140.1z"/>
<path class="st10" d="M178.9,125.1c0,13.9-11.2,25.1-25.1,25.1c-13.9,0-25.1-11.2-25.1-25.1c0-13.9,11.2-25.1,25.1-25.1
	c11.2,0,21,7.4,24.1,18.1C178.6,120.4,178.9,122.7,178.9,125.1z"/>
<path class="st5" d="M203.1,319.8c-2.6,2.4-3.6,6.9-3.6,6.9s-12.4,8.5-11.5,3.1s-6.4-27-6.4-27l0.8,29.5c0,0-39.5-1.9-42.4-4.7
	s-19.8-8.5-19.8-8.5s-5.2,4.1-9.9,7.3c-0.6-3.5-1.1-6.7-1.1-6.7l17-13.7l42.4-11.1l16-5.1l15.5,24.5
	C201.2,316.1,202.2,317.9,203.1,319.8z"/>
<path class="st6" d="M204.4,317.4c-3.3,2.1-4.5,7.6-4.5,7.6s-12.4,8.5-11.5,3.1s-6.4-27-6.4-27l0.8,29.5c0,0-39.5-1.9-42.4-4.7
	s-19.8-8.5-19.8-8.5s-14.6,11.7-17.3,10.7s4.7-21,4.7-21l7.6-117c0,0-2.1-34.8,1-36c0.5-0.2,0.9-0.5,1.3-0.8c2-1.8,2.6-5.5,2.8-8.7
	c0.2-3.7,5.1-1.9,5.1-1.9l-2.9,3.7l25.5,15.5l0.2,0.1c1-0.5,2-1,3.1-1.4c2.3-0.9,5.3-1.7,7.2-0.9c1.1,0.6,2,1.4,2.7,2.4
	c1.5,2.2,2.6,4.5,3.5,7l9.3,15.6c0,0,4.7,20.8,4.7,21.6s1.4,19.8,3.1,21.8s3.3,12.4,2.7,15.4s1,14.6,1,14.6
	c6.8,5.6,10.3,24.5,10.3,24.5s10.7,21.2,11.5,23.7S207.7,315.4,204.4,317.4z"/>
<path class="st5" d="M148.6,162.8c-2.5,3.7-9.7,8.9-9.7,8.9L118,154.1c2-1.8,2.6-5.5,2.8-8.7c0.2-3.7,5.1-1.9,5.1-1.9l-0.6,0.8
	c-1.1,1.4-0.9,3.5,0.6,4.7c0.1,0.1,0.2,0.1,0.3,0.2L148.6,162.8z"/>
<path class="st6" d="M148.6,162c-2.5,3.7-9.7,8.9-9.7,8.9L118,153.3c2-1.8,2.6-5.5,2.8-8.7c0.2-3.7,5.1-1.9,5.1-1.9l-0.6,0.8
	c-1.1,1.4-0.9,3.5,0.6,4.7c0.1,0.1,0.2,0.1,0.3,0.2L148.6,162z"/>
<path class="st5" d="M158.3,164.8c-2.7,3.2-6.5,6.9-6.3,5s-2.3-5.9-3.8-7.7c2.4-0.8,5.1-0.7,7.5,0.2
	C156.7,162.9,157.6,163.7,158.3,164.8z"/>
<path class="st6" d="M158.7,163.6c-2.7,3.2-6.5,6.9-6.3,5s-2-4.8-3.6-6.6c2.3-0.9,5.3-1.7,7.2-0.9
	C157.1,161.7,158,162.5,158.7,163.6z"/>
<circle class="st3" cx="151.9" cy="179" r="1.6"/>
<circle class="st3" cx="164.4" cy="223.5" r="1.6"/>
<circle class="st3" cx="178.6" cy="268.5" r="1.6"/>
<circle class="st3" cx="179" cy="317.6" r="1.6"/>
<circle class="st3" cx="159.2" cy="200" r="1.6"/>
<circle class="st3" cx="170.3" cy="245.8" r="1.6"/>
<circle class="st3" cx="181.2" cy="290.7" r="1.6"/>
<circle class="st3" cx="178.7" cy="323.1" r="1.6"/>
<path class="st5" d="M118,154.3c0,0,0.3-2.5-3.3,1.8s-10.3,8-10.3,8s-15.2,10.7-16.1,15.7s-5.8,26.4-3.2,33.5s22.5,41.3,22.5,41.3
	s-5.2,6.2-4,13.5s2.8,17.3,2.1,19.5s0.8,7.7-1.5,9.6s-4.8,5.2,2.5,9.6c0,0,1.4,3.7,0.1,4.5s18.3,9.3,26,4.8s21.6-40.8,21.8-48.9
	s-4.2-34.9-6.8-41.2s-9.9-30.9-13-36.4S118,154.3,118,154.3z"/>
<path class="st3" d="M117.2,154.3c0,0,0.3-2.5-3.3,1.8s-10.3,8-10.3,8s-15.2,10.7-16.1,15.7s-5.8,26.4-3.2,33.5s22.5,41.3,22.5,41.3
	s-5.2,6.2-4,13.5s2.7,17.3,2.1,19.5s0.8,7.7-1.5,9.6s-4.8,5.2,2.5,9.6c0,0,1.4,3.7,0.1,4.5s18.3,9.3,26,4.8s21.6-40.8,21.8-48.9
	s-4.3-34.9-6.7-41.2s-9.9-30.9-13.1-36.4S117.2,154.3,117.2,154.3z"/>
<path class="st5" d="M111.7,177.7c0,0,11.8,13,11.4,21.7C123.1,199.4,123.2,185.4,111.7,177.7z"/>
<path class="st5" d="M128,199.1c0,0.4,8,30.1,7.6,33.8s2.3,14.7,2.3,14.7l3.7-1c0,0-2.9-15.2-3.4-20.9S128,199.1,128,199.1z"/>
<path class="st5" d="M131.2,283.7c-0.3,0.4-18.8,21.4-13.6,22.9S131.2,283.7,131.2,283.7z"/>
<path class="st5" d="M116,278.3c-0.4,0.3-7.4,15.1-8.2,11.1s6,10.8,7.1-0.1L116,278.3z"/>
<path class="st5" d="M151.5,159c0,0,7.7-4.7,17.3,7.3c0,0,7,4,9.1,4.9s4.4,26.5,4.4,26.5s4.5,11,3.3,17.3s3.6,28,3.6,28
	s8,39,7.7,40.1s-8.1-12.2-8-18.8s-6.6-27.2-7.5-28.4s-7.5-36.5-7.5-36.5s-5.4-15-8.8-19.9s-7.7-14.3-9.5-15.9
	c-1.3-1.1-2.7-2-4.3-2.7L151.5,159z"/>
<path class="st3" d="M151.4,159c0,0,8.6-4.7,18.2,7.3c0,0,7,4,9.1,4.9s4.4,26.5,4.4,26.5s4.5,11,3.3,17.3s3.6,28,3.6,28
	s8,39,7.7,40.1s-8.1-12.2-8-18.8s-6.6-27.2-7.5-28.4s-7.6-36.5-7.6-36.5s-5.4-15-8.8-19.9s-7.7-14.3-9.5-15.9
	c-1.5-1.2-3.2-2.1-5.1-2.7L151.4,159z"/>
<path class="st10" d="M189.1,244.8c0,0,16.3-10.7,24.2-5.4s20.8,12.8,8.1,18.2s-30.3,4.4-30.3,4.4L189.1,244.8z"/>
<path class="st5" d="M177.8,348.1c-2.4,5.2-4.4,31.5-5.8,39.8c-2-3.3-4.3-7.3-5.1-8.6c-1-1.6-3.4-8.4-4.8-12.2
	c1.5-3.8,5.8-14.6,5.8-18.5c0-4.8,7.8-10.9,7.8-10.9C178.6,340.3,179.4,344.5,177.8,348.1z"/>
<path class="st5" d="M177.9,118.1c-0.4,0.2-0.8,0.4-1.2,0.5c-1.9,0.5-3.8-0.8-5.5-1.8s-4.1-1.8-5.6-0.5c-1.9,1.8-0.5,5.5-2.5,7.2
	c-1.3,1.1-3.3,0.7-4.7,1.6s-1.8,2.8-2.2,4.5c-0.4,1.7-1.1,3.6-2.7,4.1s-3.1-0.6-4.8-0.5c-0.3,0-0.7,0-1-0.2
	c-0.1-0.2-0.2-0.5-0.2-0.8c0.2-2,0-4.1-0.5-6c-0.6-2-2.2-3.5-4.2-3.9c-2.9-0.4-5.3,2.1-7,4.5c-1.8,2.5-3.4,5.1-4.9,7.8
	c-0.1,0.1-0.1,0.3-0.2,0.5c-5.6-12.7,0.2-27.5,12.9-33.1s27.5,0.2,33.1,12.9C177.2,116,177.6,117,177.9,118.1z"/>
<path class="st3" d="M135.9,126.4c1.7-2.4,4.1-4.9,7-4.5c2,0.5,3.6,2,4.2,3.9c0.6,1.9,0.7,4,0.5,6c0,0.3,0,0.5,0.2,0.8
	c0.2,0.2,0.6,0.2,0.9,0.2c1.6-0.1,3.2,1,4.8,0.5s2.3-2.4,2.7-4.1c0.4-1.7,0.7-3.6,2.2-4.5c1.4-0.9,3.4-0.5,4.7-1.6
	c2-1.7,0.6-5.5,2.5-7.2c1.5-1.3,3.9-0.6,5.6,0.5s3.6,2.3,5.5,1.8c0.6-0.2,1.3-0.5,1.9-0.8c3-1.2,7,0.8,9.5-1.3
	c0.9-0.9,1.6-2,1.9-3.3c0.7-1.7,1.2-3.4,1.4-5.3c0.2-1.8-0.3-3.7-1.4-5.1c-1.6-1.9-4.4-2.4-6.5-3.8c-1.7-1.3-3.1-3-4.1-4.9
	c-1-1.9-2.4-3.6-4-5c-1.7-1.3-4.1-1.9-6-0.9c-0.6,0.4-1.3,0.7-2,0.9c-0.8,0-1.5-0.2-2.2-0.6c-7.1-3.4-15.5-2.8-23.3-1.8
	c-3.2,0.3-6.2,1-9.2,2.2c-3,1.2-5.2,3.7-6.2,6.8c-0.6,2.4-0.1,5-0.9,7.4c-0.5,1.6-1.6,3-2.2,4.6c-1.7,4.3,0.3,9.1,1.2,13.7
	c0.9,5,0.4,10.4,2.6,15.1c0.4,0.9,0.9,2.6,1.9,1.9c0.8-0.5,1.5-3.1,2-3.9C132.5,131.6,134.1,129,135.9,126.4z"/>
<path class="st5" d="M90.7,206.9L87,217.5c0,0,8.8,32.7,12.9,39.5s10.2,15.7,10.2,15.7c6.9,3.1,14.6,4.1,22,2.7
	c11.8-2.3,46.3-8.5,46.3-8.5s2.9,0.5,4.4-1.6s9.3-3.3,9.3-3.3s9.1-13.2-2.1-18.7c0,0-1.4,3-7.3,1s-7.7,1.6-7.7,1.6s-9.6,1.9-15,1.2
	s-18.7-1-20-2.1c-0.7-0.6-1.8-0.6-2.5,0.1c0,0-3.3-1.2-4.4-2.5s-2.6,1.4-2.6,1.4s-1.9-1.1-1.4-2.5s-1.8-6.6-1.8-6.6
	c-0.6-2-0.8-4.1-0.4-6.2c0.7-2.8-3.4-12.6-3.4-12.6c-0.1-1.7,0.1-3.3,0.6-5c0.7-2.5-5.2-7.4-5.2-7.4s-5.8-28-18-18.8
	S90.7,206.9,90.7,206.9z"/>
<path class="st3" d="M89.9,206.9l-3.7,10.6c0,0,8.8,32.7,12.9,39.5s10.2,15.7,10.2,15.7c6.9,3.1,14.6,4.1,22,2.7
	c11.8-2.3,46.3-8.5,46.3-8.5s2.9,0.5,4.4-1.6s9.3-3.3,9.3-3.3s9.1-13.2-2.1-18.7c0,0-1.4,3-7.3,1s-7.7,1.6-7.7,1.6s-9.6,1.9-15,1.2
	s-18.7-1-20.1-2.1c-0.7-0.6-1.8-0.6-2.5,0.1c0,0-3.3-1.2-4.4-2.5s-2.6,1.4-2.6,1.4s-1.9-1.1-1.4-2.5c0.6-1.4-1.8-6.6-1.8-6.6
	c-0.6-2-0.8-4.1-0.4-6.2c0.7-2.8-3.4-12.6-3.4-12.6c-0.1-1.7,0.1-3.3,0.6-5c0.7-2.5-5.2-7.4-5.2-7.4s-5.8-28-18-18.8
	S89.9,206.9,89.9,206.9z"/>
<path class="st5" d="M179.1,251.1c-0.1,1-3.2,4.8-2.1,5.5s2.9,0.3,1.2,2.5s-1.5,5.5-0.4,5.1s2.9-5.4,2.9-7.3
	S179.1,251.1,179.1,251.1z"/>
<path class="st5" d="M138.3,248.9c0,0-0.8,9.6-7.6,12.4C124.1,264,138.3,248.9,138.3,248.9z"/>
<path class="st5" d="M124.3,245.6c-0.4,0.1-9.6,5.1-5.5,8S124.3,245.6,124.3,245.6z"/>
<path class="st5" d="M123.8,238.8c0,0-13.4,2.8-8.9,5.1S123.8,238.8,123.8,238.8z"/>
<g class="st12">
	<path d="M147.1,123.5c-0.6-2-2.2-3.5-4.2-3.9c-2.9-0.4-5.3,2.1-7,4.5c-1.8,2.5-3.4,5.1-4.9,7.8c-0.4,0.8-1.2,3.5-2,3.9
		c-1,0.6-1.5-1-1.9-1.9c-2.1-4.7-1.7-10.1-2.6-15.1c-0.5-2.9-1.6-5.9-1.8-8.8c-0.3,3.6,1.1,7.4,1.8,11c0.9,5,0.4,10.4,2.6,15.1
		c0.4,0.9,0.9,2.6,1.9,1.9c0.8-0.5,1.5-3.1,2-3.9c1.4-2.7,3.1-5.3,4.8-7.8c1.7-2.4,4.1-4.9,7-4.5c2,0.5,3.6,2,4.2,3.9
		c0.3,1,0.5,2,0.6,3.1C147.8,127.1,147.6,125.3,147.1,123.5z"/>
	<path d="M190,110.5c-0.3,1.2-1,2.4-1.9,3.3c-2.5,2.1-6.5,0.1-9.5,1.3c-0.6,0.2-1.2,0.6-1.9,0.8c-1.9,0.5-3.8-0.8-5.5-1.8
		s-4.1-1.8-5.6-0.5c-1.9,1.8-0.5,5.5-2.5,7.2c-1.3,1.1-3.3,0.7-4.7,1.6s-1.8,2.8-2.2,4.5c-0.4,1.7-1.1,3.6-2.7,4.1s-3.2-0.6-4.8-0.5
		c-0.3,0-0.7,0.1-0.9-0.2c-0.1-0.1-0.1-0.1-0.1-0.2c0,0.5,0,1.1-0.1,1.6c0,0.3,0,0.5,0.2,0.8c0.2,0.2,0.6,0.2,0.9,0.2
		c1.6-0.1,3.2,1,4.8,0.5s2.3-2.4,2.7-4.1c0.4-1.7,0.7-3.6,2.2-4.5c1.4-0.9,3.4-0.5,4.7-1.6c2-1.7,0.6-5.5,2.5-7.2
		c1.5-1.4,3.9-0.6,5.6,0.5s3.6,2.3,5.5,1.8c0.6-0.2,1.3-0.5,1.9-0.8c3-1.2,7,0.8,9.5-1.3c0.9-0.9,1.6-2,1.9-3.3
		c0.7-1.7,1.2-3.4,1.4-5.3c0.1-0.6,0.1-1.2,0-1.8C191.1,107.3,190.7,108.9,190,110.5z"/>
</g>
<path class="st13" d="M43,603c-18.8,0-34-15.2-34-34V43C9,24.2,24.2,9,43,9h659.9c18.8,0,34,15.2,34,34"/>
<circle class="st14" cx="60.7" cy="604.3" r="17.3"/>
<circle class="st14" cx="735.7" cy="55.8" r="15.4"/>
</svg>
